<svg width="14" height="14" viewBox="0 0 14 14" fill="none" xmlns="http://www.w3.org/2000/svg">
<g opacity="0.5">
<path d="M1.4 12.5999C1.015 12.5999 0.685533 12.4629 0.4116 12.189C0.137667 11.9151 0.000466667 11.5854 0 11.1999V2.7999C0 2.4149 0.1372 2.08544 0.4116 1.8115C0.686 1.53757 1.01547 1.40037 1.4 1.3999H12.6C12.985 1.3999 13.3147 1.5371 13.5891 1.8115C13.8635 2.0859 14.0005 2.41537 14 2.7999V11.1999C14 11.5849 13.863 11.9146 13.5891 12.189C13.3152 12.4634 12.9855 12.6004 12.6 12.5999H1.4ZM7 7.6999L12.6 4.1999V2.7999L7 6.2999L1.4 2.7999V4.1999L7 7.6999Z" fill="#6087A3"/>
</g>
</svg>
