<svg xmlns="http://www.w3.org/2000/svg" width="12" height="11" fill="currentColor" viewBox="0 0 12 11">
  <path d="M6 0S2.288 3.263.214 5.03A.635.635 0 0 0 0 5.5c0 .162.063.318.176.432a.595.595 0 0 0 .424.18h1.2v4.277c0 .162.063.317.176.432A.595.595 0 0 0 2.4 11h1.8a.59.59 0 0 0 .424-.179.617.617 0 0 0 .176-.432V7.944h2.4v2.445c0 .162.063.317.176.432A.595.595 0 0 0 7.8 11h1.8a.59.59 0 0 0 .424-.179.617.617 0 0 0 .176-.432V6.11h1.2a.59.59 0 0 0 .424-.179.608.608 0 0 0-.054-.901C9.71 3.263 6 0 6 0Z"/>
</svg>
