<svg width="14" height="14" viewBox="0 0 14 14" fill="none" xmlns="http://www.w3.org/2000/svg">
<g clip-path="url(#clip0_1_943)">
<path d="M7 1.875C8.62445 1.875 10.1824 2.52031 11.331 3.66897C12.4797 4.81763 13.125 6.37555 13.125 8C13.125 9.62445 12.4797 11.1824 11.331 12.331C10.1824 13.4797 8.62445 14.125 7 14.125C5.37555 14.125 3.81763 13.4797 2.66897 12.331C1.52031 11.1824 0.875 9.62445 0.875 8C0.875 6.37555 1.52031 4.81763 2.66897 3.66897C3.81763 2.52031 5.37555 1.875 7 1.875ZM7.91875 5.63477C8.37402 5.63477 8.74316 5.32031 8.74316 4.85137C8.74316 4.38242 8.37402 4.06797 7.91875 4.06797C7.46348 4.06797 7.0957 4.38242 7.0957 4.85137C7.0957 5.32031 7.46484 5.63613 7.91875 5.63613M8.07871 10.5594C8.07871 10.4664 8.11152 10.223 8.09238 10.0836L7.37324 10.9121C7.22422 11.068 7.03828 11.1773 6.95078 11.1486C6.9113 11.1339 6.87834 11.1056 6.85781 11.0687C6.83727 11.0319 6.83049 10.989 6.83867 10.9477L8.03633 7.16055C8.13477 6.6793 7.86543 6.2418 7.29395 6.18574C6.69238 6.18574 5.80371 6.79688 5.26367 7.57344C5.26367 7.66641 5.2459 7.89609 5.26367 8.03555L5.98281 7.20703C6.1332 7.05117 6.30547 6.9418 6.39297 6.97187C6.43554 6.98794 6.47033 7.01972 6.49017 7.06067C6.51001 7.10162 6.51339 7.14862 6.49961 7.19199L5.31016 10.9613C5.17344 11.4016 5.4332 11.8336 6.06348 11.932C6.9918 11.932 7.54004 11.3359 8.08008 10.5594H8.07871Z" fill="#52A499"/>
</g>
<defs>
<clipPath id="clip0_1_943">
<rect width="14" height="14" fill="white"/>
</clipPath>
</defs>
</svg>
