<svg width="300" height="52" viewBox="0 0 300 52" fill="none" xmlns="http://www.w3.org/2000/svg">
<g clip-path="url(#clip0_1_83)">
<path fill-rule="evenodd" clip-rule="evenodd" d="M17.263 2H29.7502L38.1661 19.1476C37.3043 19.5772 36.5092 20.1261 35.8006 20.773L17.263 2ZM34.7506 21.8804C34.1502 22.613 33.6429 23.4296 33.2499 24.3114L17 16.7302V3.90465L34.7506 21.8804ZM32.723 25.767C32.5228 26.4764 32.3919 27.2165 32.3394 27.9786H17V18.4316L32.723 25.767ZM32.3394 29.524C32.4518 31.1424 32.9163 32.6618 33.6545 34H17V29.524H32.3394ZM31.4357 2H41.9007L41.931 18.1123C41.1146 18.1731 40.3234 18.3301 39.5698 18.5737L31.4357 2ZM43.4036 2H52.5629L46.4589 18.8116C45.5107 18.4303 44.4946 18.1885 43.4339 18.1111L43.4036 2ZM54.1675 2H67.3855L49.4595 20.674C48.9541 20.225 48.404 19.8244 47.8203 19.4814L54.1675 2ZM69.4992 2H99V5.95135L52.2956 24.7309C51.8644 23.6416 51.2623 22.6416 50.5245 21.7669L69.4992 2ZM99 7.61413V27.9756H53.032C52.9897 27.3709 52.8969 26.7794 52.7609 26.2068L99 7.61413ZM99 29.5271V34H51.7164C52.4538 32.6622 52.9191 31.1446 53.0325 29.5271H99Z" fill="white"/>
<path fill-rule="evenodd" clip-rule="evenodd" d="M6.20064 40.7155L6.95673 36.0656C7.30626 33.9564 7.40034 33.1181 9.75888 33.1181C11.5403 33.1181 12.8364 33.8037 13.0347 35.8623C13.385 39.4953 10.9679 40.7155 8.68495 40.7155H6.20064ZM8.85312 41.9349C13.7707 41.9349 15.958 39.1143 15.691 36.3445C15.4904 34.2611 13.8186 32.2789 10.481 32.2789H2.62701L2.48276 33.1181C3.31057 33.1181 4.54731 33.1936 4.65764 34.3374C4.70626 34.8454 4.53884 35.7095 4.46015 36.1925L2.65559 47.1443C2.40561 48.7197 2.18185 50.0412 0.145065 50.0412L0 50.8795H7.00455L7.15036 50.0412C6.32254 50.0412 5.0858 49.9648 4.97548 48.821C4.92611 48.3129 5.09352 47.4489 5.17222 46.9667L6.01703 41.9349H8.85312ZM19.2978 47.9826C19.9914 46.3308 21.185 43.3584 22.1841 42.0112C22.6955 41.3256 22.9795 41.1472 23.8451 41.0201C24.7115 40.8931 25.598 40.4615 25.4946 39.3941C25.4283 38.7076 24.8758 38.1747 24.1984 38.1747C22.1401 38.1747 20.1295 44.1204 19.3804 45.7216L19.3256 45.6701L19.9181 43.4854C20.1758 42.5192 20.6094 40.7662 20.5137 39.7751C20.4281 38.8861 19.8819 38.1747 18.9792 38.1747C17.3984 38.1747 16.0081 41.4526 15.3199 42.6462L16.0397 43.0787C16.4325 42.4686 17.4061 40.0805 18.1591 40.0805C18.4106 40.0805 18.5495 40.4864 18.5711 40.7155C18.6127 41.1472 18.4684 41.7315 18.3605 42.1639L16.2642 50.8795H18.0966L19.2978 47.9826ZM31.5247 38.1747C27.7605 38.1747 25.2215 43.8407 25.5471 47.2206C25.7554 49.3804 27.3323 51.1635 29.5404 51.1635C32.6519 51.1635 35.8136 46.4835 35.4023 42.2146C35.1524 39.6232 33.2058 38.1747 31.5247 38.1747ZM31.5054 39.0131C32.6596 39.0131 33.1164 40.1054 33.212 41.0965C33.418 43.2314 32.1188 50.3209 29.5088 50.3209C28.38 50.3209 27.8454 49.4568 27.7451 48.4151C27.5391 46.2802 28.8206 39.0131 31.5054 39.0131ZM41.4618 38.7076C41.7264 37.5389 42.0535 33.9058 43.5588 33.9058C44.1358 33.9058 44.6844 34.642 45.4119 34.642C46.0392 34.642 46.6996 34.2104 46.6309 33.4991C46.5407 32.5586 45.4829 32 44.6806 32C41.8452 32 39.8725 36.2689 39.405 38.7076H37.2718L37.0557 40.1054H39.1889L37.6953 48.821C37.5549 49.7108 37.4623 51.0871 37.1868 51.8749C36.9647 52.485 36.6059 52.6626 36.0034 52.6626L35.0205 52.612C34.3431 52.612 33.7066 53.0436 33.7799 53.8056C33.8563 54.5933 34.5228 55 35.2512 55C37.0573 55 39.5299 51.9761 40.7289 43.5867L41.2211 40.1054H44.0063L44.2231 38.7076H41.4618ZM51.3541 47.3477C50.5309 48.44 49.1268 50.0154 47.6216 50.0154C46.5175 50.0154 46.1657 48.9737 46.0777 48.059C45.6981 44.1204 48.1454 39.3177 49.4261 39.3177C49.8018 39.3177 50.1097 39.6481 50.1483 40.0548C50.1752 40.3345 50.1282 40.6134 50.1552 40.8931C50.2138 41.5032 50.6582 42.2146 51.3356 42.2146C52.1642 42.2146 52.5623 41.4011 52.4883 40.6391C52.3517 39.2165 51.172 38.1747 49.8173 38.1747C46.5808 38.1747 43.3165 43.3584 43.6838 47.17C43.8774 49.1771 45.398 51.1635 47.5313 51.1635C49.3389 51.1635 51.1412 49.304 52.0608 47.9063L51.3541 47.3477ZM62.082 46.9667C61.3992 48.2117 59.8917 50.0154 58.3109 50.0154C57.483 50.0154 56.7987 49.685 56.6151 47.7792C56.5826 47.4489 56.5742 47.0936 56.585 46.6869C59.0361 45.8228 63.1837 43.5618 62.8797 40.4109C62.7424 38.9873 61.5604 38.1747 60.2558 38.1747C56.5919 38.1747 53.8939 43.7643 54.2172 47.1185C54.4209 49.2277 55.7618 51.1635 57.9953 51.1635C60.1779 51.1635 61.8938 49.1771 62.7756 47.3982L62.082 46.9667ZM56.6197 45.7465C56.9846 41.7315 59.0114 39.3177 60.2651 39.3177C60.8422 39.3177 61.1423 39.8257 61.1932 40.3594C61.4162 42.672 58.5608 45.0609 56.6197 45.7465ZM65.2954 50.8838H67.1516L71.9334 41.4011C72.1456 40.9953 72.6093 40.0805 73.1107 40.0805C73.4371 40.0805 73.5798 40.5122 73.6038 40.7662C73.6407 41.1472 73.387 42.164 73.2982 42.545L72.1456 47.2455C71.9859 47.932 71.7552 48.923 71.8216 49.6087C71.8995 50.4222 72.5236 51.1635 73.3769 51.1635C74.957 51.1635 75.8774 49.5074 77.057 47.17L76.3419 46.7881C75.9769 47.424 74.9562 49.5838 74.1777 49.5838C73.9771 49.5838 73.8622 49.4311 73.8452 49.2534C73.8205 48.9994 74.008 48.3387 74.0612 48.1096L75.041 43.9676C75.3126 42.8753 75.7431 41.3505 75.6328 40.2076C75.5425 39.2671 75.0102 38.1747 73.9309 38.1747C72.8515 38.1747 72.134 39.3177 71.6086 40.1054L68.187 46.7881L68.1322 46.7376L68.3621 46.0005C68.896 44.2474 69.7971 41.8842 69.6158 40.0042C69.5348 39.165 69.0132 38.1747 68.0589 38.1747C66.4534 38.1747 65.0106 41.4269 64.3278 42.672L65.094 43.0787C66.188 41.1472 66.7126 40.0805 67.1894 40.0805C67.4648 40.0805 67.5844 40.5379 67.6091 40.7919C67.6677 41.4011 67.1771 43.3326 67.0119 43.9676L65.2954 50.8838ZM81.7717 34.134L80.8336 38.4536H78.7003L78.4589 39.8515H80.5921L79.5089 46.5848C79.367 47.4489 79.154 48.6184 79.2373 49.4817C79.3322 50.4727 79.8761 51.1635 80.8791 51.1635C82.5857 51.1635 83.7854 48.7703 84.4358 47.4489L83.6287 46.8903C83.314 47.5253 82.3326 49.5838 81.5804 49.5838C81.3798 49.5838 81.2571 49.3547 81.2425 49.2028C81.2162 48.923 81.3142 48.3893 81.3628 48.1096L82.6991 39.8515H85.0831L85.35 38.4536H82.9406L83.6789 34.134H81.7717ZM89.8317 47.9826C90.5261 46.3308 91.7196 43.3584 92.718 42.0112C93.2302 41.3256 93.5133 41.1472 94.379 41.0201C95.2454 40.8931 96.1319 40.4615 96.0293 39.3941C95.9629 38.7076 95.4097 38.1747 94.7331 38.1747C92.6748 38.1747 90.6634 44.1204 89.9143 45.7216L89.8595 45.6701L90.452 43.4854C90.7097 42.5192 91.1433 40.7662 91.0476 39.7751C90.962 38.8861 90.4165 38.1747 89.5131 38.1747C87.933 38.1747 86.542 41.4526 85.8538 42.6462L86.5736 43.0787C86.9663 42.4686 87.94 40.0805 88.6938 40.0805C88.9445 40.0805 89.0833 40.4864 89.1057 40.7155C89.1474 41.1472 89.0031 41.7315 88.8943 42.1639L86.7989 50.8795H88.6304L89.8317 47.9826ZM104.187 46.9667C103.504 48.2117 101.996 50.0154 100.415 50.0154C99.5875 50.0154 98.9032 49.685 98.7195 47.7792C98.6879 47.4489 98.6786 47.0936 98.6894 46.6869C101.141 45.8228 105.288 43.5618 104.984 40.4109C104.847 38.9873 103.666 38.1747 102.36 38.1747C98.6964 38.1747 95.9984 43.7643 96.3225 47.1185C96.5254 49.2277 97.8662 51.1635 100.1 51.1635C102.282 51.1635 103.998 49.1771 104.88 47.3982L104.187 46.9667ZM98.7242 45.7465C99.0899 41.7315 101.116 39.3177 102.37 39.3177C102.947 39.3177 103.247 39.8257 103.298 40.3594C103.521 42.672 100.665 45.0609 98.7242 45.7465Z" fill="white"/>
<path fill-rule="evenodd" clip-rule="evenodd" d="M130 15.7357V33.9085H133.596V18.787H141.008V33.9085H144.604V15.7357H130ZM148.808 15.7357V33.9085H152.404V27.1787H154.727C156.856 27.1787 158.378 26.5796 159.402 25.5714C160.812 24.182 160.922 22.2202 160.922 21.5119C160.922 20.2044 160.535 18.4332 159.042 17.1251C157.686 15.9536 156.248 15.7357 154.173 15.7357H148.808ZM152.404 18.787H153.648C154.506 18.787 155.446 18.8417 156.193 19.3595C156.719 19.7406 157.217 20.4223 157.217 21.4299C157.217 22.2202 156.884 23.0379 156.221 23.5556C155.446 24.1274 154.561 24.1274 153.869 24.1274H152.404V18.787ZM172.539 15.3272C166.731 15.3272 162.692 19.3048 162.692 24.8357C162.692 30.3666 166.731 34.3216 172.539 34.3216C178.348 34.3216 182.386 30.3666 182.386 24.8357C182.386 19.3048 178.348 15.3272 172.539 15.3272ZM172.539 31.1023C168.943 31.1023 166.399 28.5141 166.399 24.8357C166.399 21.158 168.943 18.5418 172.539 18.5418C176.135 18.5418 178.679 21.158 178.679 24.8357C178.679 28.5141 176.135 31.1023 172.539 31.1023ZM193.284 33.9085H196.879V31.4022H197.377C198.65 31.4022 200.807 31.2656 202.577 30.0394C203.904 29.1132 205.343 27.37 205.343 24.264C205.343 21.158 203.904 19.4141 202.577 18.4878C200.807 17.2617 198.65 17.1251 197.377 17.1251H196.879V15H193.284V17.1251H192.786C191.513 17.1251 189.356 17.2617 187.586 18.4878C186.258 19.4141 184.82 21.158 184.82 24.264C184.82 27.37 186.258 29.1132 187.586 30.0394C189.356 31.2656 191.513 31.4022 192.786 31.4022H193.284V33.9085ZM193.284 28.3502H192.73C191.845 28.3502 190.933 28.2962 190.02 27.5879C189.356 27.0701 188.526 26.1165 188.526 24.264C188.526 22.4381 189.356 21.4299 190.02 20.9394C190.988 20.2311 192.178 20.1771 192.73 20.1771H193.284V28.3502ZM196.879 20.1771H197.432C198.594 20.1771 199.534 20.4763 200.171 20.9394C201 21.5392 201.637 22.6833 201.637 24.264C201.637 26.0892 200.807 27.0974 200.171 27.5879C199.257 28.2962 198.262 28.3502 197.432 28.3502H196.879V20.1771ZM208.662 33.9085H222.048V38H225.368V30.8571H223.155V15.7357H219.559V30.8571H212.258V15.7357H208.662V33.9085ZM237.98 15.7357H227.746V33.9085H237.98V30.8571H231.342V25.8986H237.703V22.8466H231.342V18.787H237.98V15.7357ZM245.06 15.7357H241.464V33.9085H245.06V25.8166H252.86V33.9085H256.456V15.7357H252.86V22.7653H245.06V15.7357ZM270.617 18.787V15.7357H258.724V18.787H262.872V33.9085H266.468V18.787H270.617ZM272.885 15.7357V33.9085H276.482V27.1787H278.804C280.934 27.1787 282.455 26.5796 283.479 25.5714C284.89 24.182 285 22.2202 285 21.5119C285 20.2044 284.613 18.4332 283.119 17.1251C281.764 15.9536 280.326 15.7357 278.251 15.7357H272.885ZM276.482 18.787H277.725C278.583 18.787 279.524 18.8417 280.271 19.3595C280.796 19.7406 281.294 20.4223 281.294 21.4299C281.294 22.2202 280.962 23.0379 280.298 23.5556C279.524 24.1274 278.639 24.1274 277.947 24.1274H276.482V18.787Z" fill="white"/>
<path fill-rule="evenodd" clip-rule="evenodd" d="M135.044 8.66499H135.787V0.99971H137.83V0.333083H133V0.99971H135.044V8.66499ZM138.104 0.333083L140.891 6.1417L139.831 8.66499H140.584L144.082 0.333083H143.328L141.262 5.2963L138.945 0.333083H138.104ZM145.043 8.66499H145.786V4.74918H147.164C147.973 4.74918 149.459 4.54675 149.459 2.53489C149.459 0.535523 147.984 0.333083 147.164 0.333083H145.043V8.66499ZM145.786 0.99971H147.131C147.415 0.99971 148.694 0.976093 148.694 2.53489C148.694 3.9515 147.677 4.0826 147.131 4.0826H145.786V0.99971ZM150.923 0.333083V9L156.147 2.0707V8.66499H156.89V0L151.666 6.92737V0.333083H150.923ZM165.196 6.9987C164.464 7.74821 163.47 8.23648 162.421 8.23648C160.551 8.23648 159.251 6.49887 159.251 4.49904C159.251 2.33292 160.737 0.761578 162.432 0.761578C163.207 0.761578 164.213 0.987643 165.196 2.03506V1.09513C164.148 0.238132 163.196 0.0950058 162.409 0.0950058C160.245 0.0950058 158.464 1.89235 158.464 4.49904C158.464 6.96306 160.071 8.90505 162.409 8.90505C163.273 8.90505 164.322 8.65297 165.196 7.92703V6.9987ZM167.667 8.66499H168.41V0.99971H170.453V0.333083H165.623V0.99971H167.667V8.66499ZM171.535 0.333083V9L176.76 2.0707V8.66499H177.502V0L172.279 6.92737V0.333083H171.535ZM183.295 8.66499H184.038V0.333083H183.295V4.24889C182.464 4.32069 182.344 4.33228 181.699 4.33228C180.148 4.33228 179.973 3.82039 179.973 2.68962V0.333083H179.229V2.86843C179.229 3.84447 179.251 4.99886 181.579 4.99886C182.071 4.99886 182.902 4.95115 183.295 4.91551V8.66499ZM185.961 8.66499H190.06V7.99841H186.705V4.33228H189.94V3.66565H186.705V0.99971H190.06V0.333083H185.961V8.66499ZM198.016 6.9987C197.284 7.74821 196.29 8.23648 195.24 8.23648C193.371 8.23648 192.071 6.49887 192.071 4.49904C192.071 2.33292 193.557 0.761578 195.251 0.761578C196.027 0.761578 197.032 0.987643 198.016 2.03506V1.09513C196.967 0.238132 196.016 0.0950058 195.229 0.0950058C193.066 0.0950058 191.284 1.89235 191.284 4.49904C191.284 6.96306 192.891 8.90505 195.229 8.90505C196.093 8.90505 197.142 8.65297 198.016 7.92703V6.9987ZM199.284 8.66499H200.027V4.61807L203.448 8.66499H204.443L200.737 4.36792L204.366 0.333083H203.448L200.027 4.20164V0.333083H199.284V8.66499ZM204.683 8.66499H205.448L206.508 5.95134H209.719L210.78 8.66499H211.545L208.115 0.0950058L204.683 8.66499ZM206.77 5.2847L208.115 1.86872L209.459 5.2847H206.77ZM212.432 8.66499H213.273L215.295 4.99886H215.973V8.66499H216.716V0.333083H214.923C212.617 0.333083 212.279 1.97575 212.279 2.72578C212.279 4.12985 213.284 4.98685 214.508 4.96323L212.432 8.66499ZM215.973 4.33228H214.858C214.257 4.33228 213.044 4.23734 213.044 2.666C213.044 1.11875 214.333 0.99971 214.935 0.99971H215.973V4.33228ZM221.186 8.66499H221.929V4.61807L225.35 8.66499H226.345L222.639 4.36792L226.268 0.333083H225.35L221.929 4.20164V0.333083H221.186V8.66499ZM231.208 8.90505C233.481 8.90505 235.339 7.12934 235.339 4.49904C235.339 1.86873 233.481 0.0950058 231.208 0.0950058C228.934 0.0950058 227.077 1.86873 227.077 4.49904C227.077 7.12934 228.934 8.90505 231.208 8.90505ZM231.208 8.23648C229.339 8.23648 227.864 6.68929 227.864 4.49904C227.864 2.30883 229.339 0.761578 231.208 0.761578C233.077 0.761578 234.552 2.30883 234.552 4.49904C234.552 6.68929 233.077 8.23648 231.208 8.23648ZM236.41 8.66499H237.098L237.83 2.4992L240.639 9L243.447 2.4992L244.178 8.66499H244.867L243.829 0L240.639 7.4272L237.448 0L236.41 8.66499ZM246.289 0.333083V8.66499H247.033V0.99971H251.437V8.66499H252.18V0.333083H246.289ZM253.262 8.66499H254.027L255.087 5.95134H258.298L259.359 8.66499H260.124L256.694 0.0950058L253.262 8.66499ZM255.35 5.2847L256.694 1.86872L258.038 5.2847H255.35ZM261.207 8.66499H261.951V4.41563H266.355V8.66499H267.098V0.333083H266.355V3.74906H261.951V0.333083H261.207V8.66499ZM269.021 0.333083V9L274.246 2.0707V8.66499H274.989V0L269.765 6.92737V0.333083H269.021ZM276.716 8.66499H277.557L279.579 4.99886H280.256V8.66499H281V0.333083H279.208C276.901 0.333083 276.563 1.97575 276.563 2.72578C276.563 4.12985 277.568 4.98685 278.792 4.96323L276.716 8.66499ZM280.256 4.33228H279.142C278.541 4.33228 277.327 4.23734 277.327 2.666C277.327 1.11875 278.617 0.99971 279.219 0.99971H280.256V4.33228Z" fill="#7EA5C1" stroke="#7EA5C1" stroke-width="0.4"/>
<path fill-rule="evenodd" clip-rule="evenodd" d="M146.504 48.9986L144 41.1651H145.434L146.736 45.6874L147.219 47.3694C147.241 47.2839 147.383 46.7451 147.643 45.7529L148.945 41.1651H150.371L151.596 45.7076L152.007 47.2058L152.475 45.6925L153.877 41.1651H155.226L152.667 48.9986H151.228L149.926 44.3076L149.608 42.9705L147.953 48.9986H146.504ZM157.901 48.9986L155.397 41.1651H156.831L158.133 45.6874L158.617 47.3694C158.638 47.2839 158.78 46.7451 159.04 45.7529L160.342 41.1651H161.768L162.993 45.7076L163.404 47.2058L163.872 45.6925L165.274 41.1651H166.623L164.064 48.9986H162.625L161.323 44.3076L161.005 42.9705L159.35 48.9986H157.901ZM169.298 48.9986L166.794 41.1651H168.228L169.53 45.6874L170.014 47.3694C170.035 47.2839 170.177 46.7451 170.437 45.7529L171.739 41.1651H173.165L174.391 45.7076L174.801 47.2058L175.269 45.6925L176.671 41.1651H178.02L175.461 48.9986H174.022L172.72 44.3076L172.402 42.9705L170.748 48.9986H169.298ZM178.707 48.9986V47.4853H180.288V48.9986H178.707ZM182.7 52V41.1651H183.962V42.1824C184.26 41.7845 184.596 41.485 184.972 41.286C185.346 41.0871 185.801 40.9864 186.335 40.9864C187.035 40.9864 187.65 41.1602 188.184 41.5025C188.721 41.8475 189.123 42.3334 189.394 42.9604C189.668 43.5874 189.804 44.2749 189.804 45.0227C189.804 45.8234 189.654 46.5461 189.352 47.1881C189.052 47.8303 188.615 48.3212 188.042 48.6637C187.469 49.0036 186.866 49.1749 186.235 49.1749C185.772 49.1749 185.359 49.0816 184.991 48.8954C184.623 48.709 184.323 48.4723 184.086 48.1879V52H182.7ZM183.954 45.1259C183.954 46.1331 184.168 46.8785 184.594 47.3619C185.02 47.8429 185.538 48.0845 186.143 48.0845C186.758 48.0845 187.287 47.8353 187.726 47.3342C188.166 46.8357 188.387 46.0627 188.387 45.0151C188.387 44.0155 188.171 43.2701 187.742 42.7717C187.313 42.2755 186.8 42.0263 186.206 42.0263C185.614 42.0263 185.091 42.2908 184.636 42.8195C184.181 43.3482 183.954 44.1188 183.954 45.1259ZM191.461 48.9986V41.1651H192.708V42.3511C193.026 41.7972 193.321 41.4296 193.592 41.2533C193.86 41.077 194.157 40.9864 194.481 40.9864C194.949 40.9864 195.423 41.1299 195.907 41.4144L195.428 42.6483C195.091 42.4543 194.752 42.3587 194.413 42.3587C194.107 42.3587 193.837 42.4469 193.595 42.6205C193.353 42.7968 193.182 43.0385 193.079 43.3482C192.924 43.819 192.848 44.3353 192.848 44.8967V48.9986H191.461ZM196.214 45.0806C196.214 43.6302 196.635 42.555 197.48 41.8576C198.182 41.2784 199.039 40.9864 200.052 40.9864C201.178 40.9864 202.098 41.3389 202.811 42.0465C203.527 42.7515 203.882 43.726 203.882 44.9698C203.882 45.9795 203.724 46.7727 203.408 47.3494C203.093 47.9284 202.632 48.3766 202.03 48.6964C201.425 49.0163 200.767 49.1749 200.052 49.1749C198.908 49.1749 197.982 48.8248 197.274 48.1197C196.567 47.4173 196.214 46.4051 196.214 45.0806ZM197.64 45.0806C197.64 46.0853 197.869 46.8357 198.327 47.3342C198.784 47.8353 199.36 48.0845 200.052 48.0845C200.741 48.0845 201.315 47.8328 201.772 47.3317C202.227 46.8306 202.456 46.0652 202.456 45.0378C202.456 44.0683 202.227 43.3332 201.767 42.8345C201.307 42.336 200.736 42.0867 200.052 42.0867C199.36 42.0867 198.784 42.336 198.327 42.8321C197.869 43.328 197.64 44.0784 197.64 45.0806ZM205.839 48.9986V42.1975H204.616V41.1651H205.839V40.3317C205.839 39.8055 205.889 39.4125 205.986 39.1584C206.12 38.8133 206.354 38.5339 206.691 38.3198C207.028 38.1058 207.498 38 208.106 38C208.495 38 208.927 38.0428 209.4 38.1335L209.192 39.2918C208.906 39.2414 208.632 39.2162 208.374 39.2162C207.953 39.2162 207.656 39.3019 207.483 39.4756C207.306 39.6467 207.22 39.9691 207.22 40.4424V41.1651H208.814V42.1975H207.22V48.9986H205.839ZM215.234 46.1282L216.597 46.2993C216.449 47.1982 216.068 47.9032 215.453 48.412C214.84 48.9205 214.085 49.1749 213.19 49.1749C212.073 49.1749 211.17 48.8248 210.492 48.1249C209.811 47.4248 209.469 46.4202 209.469 45.1109C209.469 44.2648 209.616 43.5245 209.908 42.8899C210.202 42.2554 210.647 41.7795 211.247 41.4623C211.844 41.145 212.496 40.9864 213.198 40.9864C214.087 40.9864 214.816 41.2029 215.379 41.6335C215.944 42.064 216.307 42.6735 216.468 43.4666L215.118 43.6654C214.99 43.1392 214.763 42.7439 214.437 42.477C214.111 42.2127 213.716 42.0792 213.254 42.0792C212.554 42.0792 211.986 42.3184 211.549 42.7993C211.112 43.2777 210.894 44.0357 210.894 45.073C210.894 46.1255 211.105 46.8911 211.528 47.3694C211.949 47.8454 212.499 48.0845 213.177 48.0845C213.722 48.0845 214.174 47.9234 214.54 47.6036C214.905 47.2839 215.137 46.7928 215.234 46.1282ZM223.385 46.4756L224.819 46.6443C224.593 47.4475 224.175 48.0695 223.564 48.5127C222.952 48.9533 222.17 49.1749 221.221 49.1749C220.024 49.1749 219.074 48.8223 218.375 48.1173C217.672 47.4122 217.323 46.4227 217.323 45.1486C217.323 43.8291 217.678 42.8069 218.385 42.0792C219.095 41.3515 220.014 40.9864 221.144 40.9864C222.239 40.9864 223.133 41.3439 223.825 42.0566C224.519 42.769 224.866 43.7738 224.866 45.0656C224.866 45.1461 224.864 45.2644 224.858 45.4205H218.756C218.806 46.2816 219.061 46.9414 219.519 47.3972C219.977 47.8555 220.545 48.0845 221.229 48.0845C221.736 48.0845 222.17 47.9562 222.531 47.6993C222.891 47.445 223.175 47.0371 223.385 46.4756ZM218.833 44.3278H223.401C223.341 43.6705 223.165 43.1746 222.878 42.8471C222.436 42.336 221.863 42.0792 221.16 42.0792C220.524 42.0792 219.987 42.2831 219.553 42.691C219.119 43.099 218.88 43.6454 218.833 44.3278ZM226.563 48.9986V41.1651H227.81V42.278C228.412 41.417 229.28 40.9864 230.414 40.9864C230.908 40.9864 231.361 41.072 231.774 41.2407C232.189 41.4119 232.497 41.6335 232.702 41.9105C232.91 42.1849 233.052 42.5122 233.136 42.8899C233.186 43.1367 233.212 43.5674 233.212 44.1817V48.9986H231.824V44.232C231.824 43.6932 231.771 43.2878 231.663 43.0184C231.555 42.7515 231.363 42.5375 231.09 42.3787C230.814 42.2176 230.493 42.1371 230.122 42.1371C229.53 42.1371 229.022 42.3184 228.591 42.6759C228.162 43.036 227.949 43.7159 227.949 44.7206V48.9986H226.563ZM238.368 47.8101L238.568 48.9836C238.178 49.0616 237.829 49.1018 237.521 49.1018C237.016 49.1018 236.627 49.0262 236.348 48.8727C236.072 48.7216 235.877 48.5201 235.764 48.2709C235.651 48.0242 235.593 47.5004 235.593 46.7047V42.1975H234.575V41.1651H235.593V39.2238L236.974 38.428V41.1651H238.368V42.1975H236.974V46.7778C236.974 47.158 236.997 47.3997 237.045 47.508C237.095 47.6162 237.174 47.7018 237.284 47.7673C237.395 47.8303 237.552 47.8631 237.758 47.8631C237.913 47.8631 238.115 47.8454 238.368 47.8101ZM239.709 48.9986V41.1651H240.956V42.3511C241.274 41.7972 241.569 41.4296 241.84 41.2533C242.108 41.077 242.405 40.9864 242.729 40.9864C243.197 40.9864 243.671 41.1299 244.154 41.4144L243.676 42.6483C243.339 42.4543 243 42.3587 242.66 42.3587C242.355 42.3587 242.084 42.4469 241.842 42.6205C241.6 42.7968 241.429 43.0385 241.327 43.3482C241.172 43.819 241.095 44.3353 241.095 44.8967V48.9986H239.709ZM250.58 46.4756L252.014 46.6443C251.788 47.4475 251.37 48.0695 250.759 48.5127C250.146 48.9533 249.365 49.1749 248.416 49.1749C247.219 49.1749 246.269 48.8223 245.57 48.1173C244.867 47.4122 244.517 46.4227 244.517 45.1486C244.517 43.8291 244.873 42.8069 245.58 42.0792C246.29 41.3515 247.208 40.9864 248.339 40.9864C249.434 40.9864 250.328 41.3439 251.02 42.0566C251.714 42.769 252.061 43.7738 252.061 45.0656C252.061 45.1461 252.059 45.2644 252.053 45.4205H245.951C246.001 46.2816 246.256 46.9414 246.714 47.3972C247.172 47.8555 247.74 48.0845 248.424 48.0845C248.931 48.0845 249.365 47.9562 249.726 47.6993C250.086 47.445 250.37 47.0371 250.58 46.4756ZM246.027 44.3278H250.596C250.536 43.6705 250.359 43.1746 250.073 42.8471C249.631 42.336 249.057 42.0792 248.355 42.0792C247.719 42.0792 247.182 42.2831 246.748 42.691C246.314 43.099 246.075 43.6454 246.027 44.3278ZM254.15 48.9986V47.4853H255.731V48.9986H254.15ZM258.127 48.9986V41.1651H259.373V42.3511C259.692 41.7972 259.986 41.4296 260.257 41.2533C260.526 41.077 260.823 40.9864 261.146 40.9864C261.615 40.9864 262.088 41.1299 262.572 41.4144L262.093 42.6483C261.757 42.4543 261.417 42.3587 261.078 42.3587C260.773 42.3587 260.502 42.4469 260.26 42.6205C260.018 42.7968 259.847 43.0385 259.744 43.3482C259.589 43.819 259.513 44.3353 259.513 44.8967V48.9986H258.127ZM268.761 48.9986V47.8479C268.122 48.7342 267.257 49.1749 266.162 49.1749C265.681 49.1749 265.229 49.0868 264.81 48.9105C264.392 48.7342 264.082 48.5101 263.879 48.2433C263.674 47.9737 263.532 47.6464 263.451 47.2587C263.395 46.9968 263.366 46.5838 263.366 46.0174V41.1651H264.753V45.5086C264.753 46.2036 264.781 46.6695 264.837 46.9111C264.926 47.2612 265.11 47.5331 265.392 47.7346C265.676 47.9335 266.026 48.0318 266.441 48.0318C266.857 48.0318 267.246 47.931 267.612 47.7269C267.977 47.523 268.235 47.2435 268.385 46.8936C268.538 46.541 268.614 46.0299 268.614 45.3626V41.1651H270V48.9986H268.761Z" fill="#7EA5C1"/>
<path fill-rule="evenodd" clip-rule="evenodd" d="M121.531 17.8973L119.397 17.6533L115.487 24.8337L118.592 25.1864L121.531 17.8973Z" fill="white"/>
<path fill-rule="evenodd" clip-rule="evenodd" d="M126.744 17.8973L124.609 17.6533L120.7 24.8337L123.804 25.1864L126.744 17.8973Z" fill="white"/>
<path fill-rule="evenodd" clip-rule="evenodd" d="M121.531 31.7505L119.397 31.9945L115.487 24.8141L118.592 24.4614L121.531 31.7505Z" fill="white"/>
<path fill-rule="evenodd" clip-rule="evenodd" d="M126.744 31.7505L124.609 31.9945L120.7 24.8141L123.804 24.4614L126.744 31.7505Z" fill="white"/>
<path fill-rule="evenodd" clip-rule="evenodd" d="M292.956 17.8973L295.091 17.6533L299 24.8337L295.895 25.1864L292.956 17.8973Z" fill="white"/>
<path fill-rule="evenodd" clip-rule="evenodd" d="M287.744 17.8973L289.878 17.6533L293.788 24.8337L290.683 25.1864L287.744 17.8973Z" fill="white"/>
<path fill-rule="evenodd" clip-rule="evenodd" d="M292.956 31.7505L295.091 31.9945L299 24.8141L295.895 24.4614L292.956 31.7505Z" fill="white"/>
<path fill-rule="evenodd" clip-rule="evenodd" d="M287.744 31.7505L289.878 31.9945L293.788 24.8141L290.683 24.4614L287.744 31.7505Z" fill="white"/>
</g>
<defs>
<clipPath id="clip0_1_83">
<rect width="300" height="52" fill="white"/>
</clipPath>
</defs>
</svg>
