<svg width="26" height="26" viewBox="0 0 26 26" fill="none" xmlns="http://www.w3.org/2000/svg">
<path d="M4.67961 20.8C4.10761 20.8 3.61812 20.6092 3.21113 20.2277C2.80414 19.8461 2.6003 19.3869 2.59961 18.85V7.15001C2.59961 6.61376 2.80345 6.15486 3.21113 5.77331C3.61881 5.39176 4.1083 5.20066 4.67961 5.20001H21.3196C21.8916 5.20001 22.3814 5.39111 22.7891 5.77331C23.1968 6.15551 23.4003 6.61441 23.3996 7.15001V18.85C23.3996 19.3863 23.1961 19.8455 22.7891 20.2277C22.3821 20.6099 21.8923 20.8007 21.3196 20.8H4.67961ZM12.9996 13.975L21.3196 9.10001V7.15001L12.9996 12.025L4.67961 7.15001V9.10001L12.9996 13.975Z" fill="#52A499"/>
</svg>
