<svg width="100" height="100" viewBox="0 0 100 100" fill="none" xmlns="http://www.w3.org/2000/svg">
<circle cx="47.5" cy="41.5" r="18.5" fill="white"/>
<path d="M50 6.25C40.8864 6.26034 32.1489 9.8853 25.7046 16.3296C19.2603 22.7739 15.6353 31.5114 15.625 40.625C15.625 70.0391 46.875 92.2539 48.207 93.1836C48.7325 93.5517 49.3585 93.7491 50 93.7491C50.6415 93.7491 51.2675 93.5517 51.793 93.1836C53.125 92.2539 84.375 70.0391 84.375 40.625C84.3647 31.5114 80.7397 22.7739 74.2954 16.3296C67.8511 9.8853 59.1136 6.26034 50 6.25ZM50 28.125C52.4723 28.125 54.889 28.8581 56.9446 30.2316C59.0002 31.6051 60.6024 33.5574 61.5485 35.8415C62.4946 38.1255 62.7421 40.6389 62.2598 43.0636C61.7775 45.4884 60.587 47.7157 58.8388 49.4638C57.0907 51.212 54.8634 52.4025 52.4386 52.8848C50.0139 53.3671 47.5005 53.1196 45.2165 52.1735C42.9324 51.2274 40.9801 49.6252 39.6066 47.5696C38.2331 45.514 37.5 43.0973 37.5 40.625C37.5 37.3098 38.817 34.1304 41.1612 31.7862C43.5054 29.442 46.6848 28.125 50 28.125Z" fill="#52A499"/>
<path d="M50 6.25C40.8864 6.26034 32.1489 9.8853 25.7046 16.3296C19.2603 22.7739 15.6353 31.5114 15.625 40.625C15.625 70.0391 46.875 92.2539 48.207 93.1836C48.7325 93.5517 49.3585 93.7491 50 93.7491C50.6415 93.7491 51.2675 93.5517 51.793 93.1836C53.125 92.2539 84.375 70.0391 84.375 40.625C84.3647 31.5114 80.7397 22.7739 74.2954 16.3296C67.8511 9.8853 59.1136 6.26034 50 6.25ZM50 28.125C52.4723 28.125 54.889 28.8581 56.9446 30.2316C59.0002 31.6051 60.6024 33.5574 61.5485 35.8415C62.4946 38.1255 62.7421 40.6389 62.2598 43.0636C61.7775 45.4884 60.587 47.7157 58.8388 49.4638C57.0907 51.212 54.8634 52.4025 52.4386 52.8848C50.0139 53.3671 47.5005 53.1196 45.2165 52.1735C42.9324 51.2274 40.9801 49.6252 39.6066 47.5696C38.2331 45.514 37.5 43.0973 37.5 40.625C37.5 37.3098 38.817 34.1304 41.1612 31.7862C43.5054 29.442 46.6848 28.125 50 28.125Z" fill="url(#paint0_linear_88_549)" fill-opacity="0.3"/>
<defs>
<linearGradient id="paint0_linear_88_549" x1="25.3883" y1="-5.41654" x2="96.8063" y2="8.10507" gradientUnits="userSpaceOnUse">
<stop stop-color="white" stop-opacity="0.42"/>
<stop offset="0.255" stop-color="white" stop-opacity="0.05"/>
<stop offset="0.425" stop-color="white" stop-opacity="0.19"/>
<stop offset="0.705" stop-color="white" stop-opacity="0.64"/>
<stop offset="1" stop-color="white" stop-opacity="0"/>
<stop offset="1" stop-color="white" stop-opacity="0.36"/>
</linearGradient>
</defs>
</svg>
