<svg width="43" height="26" viewBox="0 0 43 26" fill="none" xmlns="http://www.w3.org/2000/svg">
<path d="M42.4319 12.648C42.4319 19.5882 36.7526 25.296 29.7023 25.296C22.7174 25.296 16.9727 19.5882 16.9727 12.648C16.9727 5.70782 22.6521 0 29.6371 0C36.7526 0 42.4319 5.70782 42.4319 12.648Z" fill="#F9B50B"/>
<path d="M25.3939 12.7129C25.3939 11.8048 25.2634 10.8967 25.1328 10.0535H17.2992C17.3645 9.59951 17.495 9.21034 17.6256 8.69145H24.6106C24.48 8.23741 24.2842 7.78338 24.0883 7.32935H18.1478C18.3437 6.87532 18.6048 6.48615 18.8659 5.96726H23.3702C23.1091 5.51323 22.7827 5.0592 22.391 4.60517H19.9104C20.3021 4.15114 20.6938 3.76197 21.216 3.30794C18.9965 1.23237 15.9936 0 12.6643 0C5.74464 0.194585 0 5.70782 0 12.648C0 19.5882 5.67936 25.296 12.7296 25.296C16.0589 25.296 18.9965 23.9988 21.2813 21.9881C21.7382 21.5989 22.1299 21.1449 22.5869 20.626H19.9757C19.6493 20.2368 19.3229 19.7828 19.0618 19.3287H23.5008C23.7619 18.9396 24.023 18.4855 24.2189 17.9666H18.2784C18.0826 17.5775 17.8867 17.1234 17.7562 16.6046H24.7411C25.1328 15.437 25.3939 14.1398 25.3939 12.7129Z" fill="#C8191C"/>
<path d="M17.2339 15.8912L17.4298 14.7237C17.3645 14.7237 17.2339 14.7885 17.1034 14.7885C16.6464 14.7885 16.5811 14.5291 16.6464 14.3994L17.0381 12.0643H17.7562L17.952 10.7671H17.2992L17.4298 9.98877H16.0589C16.0589 9.98877 15.2755 14.3994 15.2755 14.9182C15.2755 15.6966 15.7325 16.0858 16.3853 16.0858C16.777 16.0858 17.1034 15.956 17.2339 15.8912Z" fill="white"/>
<path d="M17.6908 13.7506C17.6908 15.6316 18.9964 16.0857 20.0409 16.0857C21.0201 16.0857 21.4771 15.8911 21.4771 15.8911L21.7382 14.5938C21.7382 14.5938 21.0201 14.9182 20.302 14.9182C18.8006 14.9182 19.0617 13.8155 19.0617 13.8155H21.8035C21.8035 13.8155 21.9993 12.9723 21.9993 12.5831C21.9993 11.7399 21.5423 10.6373 20.0409 10.6373C18.7353 10.5724 17.6908 12.0642 17.6908 13.7506ZM20.0409 11.8048C20.759 11.8048 20.6284 12.648 20.6284 12.7129H19.127C19.1923 12.648 19.3228 11.8048 20.0409 11.8048Z" fill="white"/>
<path d="M28.5926 15.8913L28.8537 14.3995C28.8537 14.3995 28.201 14.7238 27.6787 14.7238C26.7648 14.7238 26.3078 14.0104 26.3078 13.1672C26.3078 11.5456 27.0912 10.7024 28.0704 10.7024C28.7232 10.7024 29.3107 11.0916 29.3107 11.0916L29.5065 9.66464C29.5065 9.66464 28.7232 9.34033 27.9398 9.34033C26.3731 9.34033 24.8717 10.7024 24.8717 13.232C24.8717 14.9184 25.655 16.0211 27.287 16.0211C27.8745 16.0859 28.5926 15.8913 28.5926 15.8913Z" fill="white"/>
<path d="M9.85735 10.5723C8.94343 10.5723 8.22535 10.8317 8.22535 10.8317L8.02951 11.9992C8.02951 11.9992 8.61703 11.7398 9.53095 11.7398C9.98791 11.7398 10.3796 11.8046 10.3796 12.1938C10.3796 12.4532 10.3143 12.5181 10.3143 12.5181H9.72679C8.55175 12.5181 7.31143 12.9721 7.31143 14.5288C7.31143 15.7612 8.09479 16.0206 8.61703 16.0206C9.53095 16.0206 9.98791 15.4369 10.0532 15.4369L9.98791 15.9558H11.0977L11.6199 12.2587C11.6199 10.6371 10.3143 10.5723 9.85735 10.5723ZM10.1185 13.5559C10.1185 13.7505 9.98791 14.8531 9.20455 14.8531C8.81287 14.8531 8.68231 14.5288 8.68231 14.3342C8.68231 14.0099 8.87815 13.5559 9.92263 13.5559C10.0532 13.5559 10.1185 13.5559 10.1185 13.5559Z" fill="white"/>
<path d="M12.9254 16.021C13.2518 16.021 14.9491 16.0859 14.9491 14.2698C14.9491 12.5834 13.3171 12.9077 13.3171 12.2591C13.3171 11.9348 13.5782 11.805 14.0352 11.805C14.231 11.805 14.9491 11.8699 14.9491 11.8699L15.1449 10.6375C15.1449 10.6375 14.688 10.5078 13.8393 10.5078C12.8601 10.5078 11.8157 10.897 11.8157 12.2591C11.8157 13.8157 13.5129 13.686 13.5129 14.2698C13.5129 14.6589 13.056 14.7238 12.7296 14.7238C12.1421 14.7238 11.4893 14.5292 11.4893 14.5292L11.2934 15.7616C11.424 15.8913 11.8157 16.021 12.9254 16.021Z" fill="white"/>
<path d="M39.8208 9.53516L39.5596 11.3513C39.5596 11.3513 39.0374 10.7027 38.254 10.7027C37.0137 10.7027 35.9692 12.1945 35.9692 13.9457C35.9692 15.0484 36.4915 16.151 37.6665 16.151C38.4499 16.151 38.9721 15.6321 38.9721 15.6321L38.9068 16.0862H40.2777L41.2569 9.66488L39.8208 9.53516ZM39.168 13.0377C39.168 13.7512 38.8416 14.7241 38.0582 14.7241C37.6012 14.7241 37.3401 14.3349 37.3401 13.6214C37.3401 12.5188 37.7971 11.8702 38.4499 11.8702C38.9068 11.935 39.168 12.2593 39.168 13.0377Z" fill="white"/>
<path d="M2.48071 15.9564L3.26407 11.1567L3.39463 15.9564H4.30855L6.07111 11.1567L5.35303 15.9564H6.78919L7.89895 9.53516H5.67943L4.30855 13.4917L4.24327 9.53516H2.28487L1.17511 15.9564H2.48071Z" fill="white"/>
<path d="M23.3703 15.9559C23.762 13.7506 23.8272 11.9345 24.8064 12.2588C24.937 11.4156 25.1328 11.0265 25.2634 10.7021H25.0023C24.4148 10.7021 23.8925 11.4805 23.8925 11.4805L24.0231 10.767H22.7175L21.8688 15.9559H23.3703Z" fill="white"/>
<path d="M31.7261 10.5723C30.8122 10.5723 30.0941 10.8317 30.0941 10.8317L29.8983 11.9992C29.8983 11.9992 30.4858 11.7398 31.3997 11.7398C31.8567 11.7398 32.2483 11.8046 32.2483 12.1938C32.2483 12.4532 32.1831 12.5181 32.1831 12.5181H31.5955C30.4205 12.5181 29.1802 12.9721 29.1802 14.5288C29.1802 15.7612 29.9635 16.0206 30.4858 16.0206C31.3997 16.0206 31.8567 15.4369 31.9219 15.4369L31.8567 15.9558H33.097L33.6192 12.2587C33.6192 10.6371 32.1831 10.5723 31.7261 10.5723ZM32.0525 13.5559C32.0525 13.7505 31.9219 14.8531 31.1386 14.8531C30.7469 14.8531 30.6163 14.5288 30.6163 14.3342C30.6163 14.0099 30.8122 13.5559 31.8567 13.5559C31.9872 13.5559 31.9872 13.5559 32.0525 13.5559Z" fill="white"/>
<path d="M34.6637 15.9559C35.0554 13.7506 35.1207 11.9345 36.0999 12.2588C36.2304 11.4156 36.4263 11.0265 36.5568 10.7021H36.2957C35.7082 10.7021 35.1859 11.4805 35.1859 11.4805L35.3165 10.767H34.0109L33.1623 15.9559H34.6637Z" fill="white"/>
</svg>
