<svg width="58" height="17" viewBox="0 0 58 17" fill="none" xmlns="http://www.w3.org/2000/svg">
<path d="M51.2478 0H40.2509C40.8915 3.57978 44.4148 6.94899 48.2584 6.94899H57.0132C57.12 6.63313 57.12 6.10669 57.12 5.79082C57.12 2.63219 54.4508 0 51.2478 0Z" fill="url(#paint0_linear_1_53)"/>
<path d="M41.2118 7.58057V16.3194H46.5501V11.6868H51.2478C53.8102 11.6868 56.0524 9.8969 56.7997 7.58057H41.2118Z" fill="#4FAD50"/>
<path d="M22.4209 0V16.2143H27.1187C27.1187 16.2143 28.2931 16.2143 28.9337 15.0562C32.1367 8.84418 33.0975 6.949 33.0975 6.949H33.7381V16.2143H39.0765V0H34.3787C34.3787 0 33.2043 0.105294 32.5637 1.15817C29.8946 6.52785 28.3998 9.26533 28.3998 9.26533H27.7592V0H22.4209Z" fill="#4FAD50"/>
<path d="M0 16.3198V0.105469H5.33833C5.33833 0.105469 6.83307 0.105465 7.6872 2.4218C9.82253 8.52849 10.0361 9.3708 10.0361 9.3708C10.0361 9.3708 10.4631 7.89676 12.3849 2.4218C13.2391 0.105465 14.7338 0.105469 14.7338 0.105469H20.0721V16.3198H14.7338V7.58091H14.0932L11.1037 16.3198H8.75487L5.76542 7.58091H5.12481V16.3198H0Z" fill="#4FAD50"/>
<defs>
<linearGradient id="paint0_linear_1_53" x1="40.2319" y1="3.5243" x2="57.0822" y2="3.5243" gradientUnits="userSpaceOnUse">
<stop stop-color="#27B1E6"/>
<stop offset="1" stop-color="#148ACA"/>
</linearGradient>
</defs>
</svg>
