<svg width="12" height="12" viewBox="0 0 12 12" fill="none" xmlns="http://www.w3.org/2000/svg">
<g opacity="0.5" clip-path="url(#clip0_88_1304)">
<path d="M6 12C2.6862 12 0 9.3138 0 6C0 2.6862 2.6862 0 6 0C9.3138 0 12 2.6862 12 6C12 9.3138 9.3138 12 6 12ZM5.4 7.8V9H6.6V7.8H5.4ZM6.6 6.813C7.0822 6.66767 7.49616 6.35397 7.76649 5.92905C8.03683 5.50412 8.14554 4.99623 8.07284 4.49788C8.00014 3.99953 7.75086 3.54386 7.37041 3.21387C6.98995 2.88388 6.50363 2.70152 6 2.7C5.51448 2.69985 5.04391 2.86794 4.66836 3.17566C4.29282 3.48338 4.0355 3.91173 3.9402 4.3878L5.1174 4.6236C5.15081 4.45646 5.23099 4.30224 5.34862 4.17889C5.46625 4.05554 5.61649 3.96813 5.78186 3.92682C5.94722 3.88552 6.12092 3.89203 6.28273 3.94558C6.44455 3.99914 6.58783 4.09754 6.6959 4.22935C6.80397 4.36115 6.8724 4.52093 6.89321 4.69011C6.91402 4.85928 6.88637 5.03088 6.81346 5.18495C6.74056 5.33902 6.6254 5.46922 6.4814 5.5604C6.33739 5.65158 6.17045 5.69999 6 5.7C5.84087 5.7 5.68826 5.76321 5.57574 5.87574C5.46321 5.98826 5.4 6.14087 5.4 6.3V7.2H6.6V6.813Z" fill="#6087A3"/>
</g>
<defs>
<clipPath id="clip0_88_1304">
<rect width="12" height="12" fill="white"/>
</clipPath>
</defs>
</svg>
