<svg width="24" height="24" viewBox="0 0 24 24" fill="none" xmlns="http://www.w3.org/2000/svg">
<circle cx="12" cy="12" r="12" fill="#2F89CE"/>
<path d="M5.02099 12.3839L7.91779 13.4453L9.04704 17.0154C9.09614 17.2566 9.39073 17.3048 9.58713 17.1601L11.2074 15.8575C11.3547 15.7128 11.6002 15.7128 11.7965 15.8575L14.6933 17.932C14.8897 18.0767 15.1843 17.9802 15.2334 17.739L17.3937 7.60773C17.4428 7.36651 17.1973 7.12529 16.9518 7.22178L5.02099 11.7567C4.7264 11.8532 4.7264 12.2874 5.02099 12.3839ZM8.89976 12.9146L14.5951 9.48926C14.6933 9.44101 14.7915 9.58575 14.6933 9.63399L10.029 13.9277C9.88171 14.0725 9.73442 14.2654 9.73442 14.5067L9.58713 15.6645C9.58713 15.8093 9.34163 15.8575 9.29254 15.6645L8.70335 13.5418C8.55606 13.3006 8.65427 13.0111 8.89976 12.9146Z" fill="white"/>
</svg>
