<svg width="15" height="15" viewBox="0 0 15 15" fill="none" xmlns="http://www.w3.org/2000/svg">
<g clip-path="url(#clip0_1_525)">
<path d="M15 5.93333H9.34962L11.6331 3.58333C9.35795 1.33333 5.67437 1.25 3.39922 3.5C2.85868 4.03383 2.42951 4.66965 2.1366 5.37059C1.84368 6.07154 1.69285 6.82366 1.69285 7.58333C1.69285 8.34301 1.84368 9.09513 2.1366 9.79607C2.42951 10.497 2.85868 11.1328 3.39922 11.6667C5.67437 13.9167 9.35795 13.9167 11.6331 11.6667C12.7665 10.5417 13.3332 9.23333 13.3332 7.58333H15C15 9.23333 14.2666 11.375 12.7999 12.825C9.87465 15.725 5.12433 15.725 2.19914 12.825C-0.717729 9.93333 -0.742731 5.23333 2.18247 2.34167C3.58499 0.952289 5.4794 0.172832 7.45366 0.172832C9.42791 0.172832 11.3223 0.952289 12.7248 2.34167L15 0V5.93333Z" fill="#52A499"/>
</g>
<defs>
<clipPath id="clip0_1_525">
<rect width="15" height="15" fill="white"/>
</clipPath>
</defs>
</svg>
