<svg width="56" height="17" viewBox="0 0 56 17" fill="none" xmlns="http://www.w3.org/2000/svg">
<path d="M51.7564 0.233887H48.2681C47.2135 0.233887 46.4023 0.544744 45.9156 1.55503L39.2635 16.0876H43.9686C43.9686 16.0876 44.7798 14.1447 44.9421 13.6785C45.4288 13.6785 50.0528 13.6785 50.7018 13.6785C50.864 14.2225 51.2697 16.0099 51.2697 16.0099H55.4881L51.7564 0.233887ZM46.24 10.4145C46.6457 9.48188 48.0248 5.98474 48.0248 5.98474C48.0248 6.06246 48.4304 5.05217 48.5926 4.50817L48.9171 5.90703C48.9171 5.90703 49.8095 9.71503 49.9717 10.4922H46.24V10.4145Z" fill="white"/>
<path d="M39.588 10.88C39.588 14.144 36.5053 16.32 31.719 16.32C29.691 16.32 27.744 15.9314 26.6894 15.4651L27.3384 11.8903L27.9063 12.1234C29.3665 12.7451 30.3399 12.9783 32.1247 12.9783C33.4226 12.9783 34.8017 12.512 34.8017 11.424C34.8017 10.7246 34.2338 10.2583 32.4491 9.48114C30.7456 8.704 28.4741 7.46057 28.4741 5.20686C28.4741 2.09829 31.6379 0 36.0997 0C37.8033 0 39.2635 0.310857 40.1558 0.699428L39.5068 4.11886L39.1823 3.808C38.3711 3.49714 37.3165 3.18629 35.7752 3.18629C34.0716 3.264 33.2604 3.96343 33.2604 4.58514C33.2604 5.28457 34.2338 5.82857 35.7752 6.528C38.3711 7.69371 39.588 9.01486 39.588 10.88Z" fill="white"/>
<path d="M0 0.388982L0.0811228 0.078125H7.05768C8.03116 0.078125 8.76126 0.388982 9.00463 1.39927L10.546 8.39356C9.00463 4.66327 5.43523 1.63241 0 0.388982Z" fill="#F9B50B"/>
<path d="M20.3618 0.233476L13.3042 16.0095H8.5179L4.46176 2.79805C7.38218 4.58547 9.81587 7.38319 10.7082 9.32605L11.195 10.958L15.5756 0.155762H20.3618V0.233476Z" fill="white"/>
<path d="M22.2277 0.155762H26.6894L23.8501 16.0095H19.3884L22.2277 0.155762Z" fill="white"/>
</svg>
