<svg width="30" height="30" viewBox="0 0 30 30" fill="none" xmlns="http://www.w3.org/2000/svg">
<circle cx="15" cy="15" r="15" fill="#4A76A8"/>
<path d="M22.3467 19.9983C22.3467 19.9315 22.2811 19.9315 22.2811 19.8647C22.0185 19.3305 21.4276 18.6627 20.6398 17.9281C20.2459 17.5942 20.049 17.3271 19.9177 17.1935C19.7207 16.9264 19.7208 16.726 19.7864 16.4589C19.8521 16.2586 20.1146 15.9247 20.5742 15.3236C20.8368 14.9897 20.9681 14.7894 21.165 14.589C22.1498 13.2534 22.6093 12.3853 22.478 11.9846L22.4124 11.9178C22.3467 11.851 22.2811 11.7842 22.1498 11.7842C22.0185 11.7175 21.8215 11.7175 21.6246 11.7842H19.1299C19.0643 11.7842 19.0643 11.7842 18.933 11.7842C18.8673 11.7842 18.8017 11.7842 18.8017 11.7842H18.736H18.6704L18.6047 11.851C18.5391 11.9178 18.5391 11.9178 18.5391 11.9846C18.2765 12.7192 17.9482 13.3202 17.62 13.988C17.423 14.3219 17.2261 14.6558 17.0291 14.9229C16.8322 15.1901 16.7009 15.3904 16.5696 15.524C16.4383 15.6575 16.307 15.7243 16.2413 15.8579C16.1757 15.9247 16.0444 15.9914 16.0444 15.9247C15.9787 15.9247 15.9131 15.9247 15.9131 15.8579C15.8474 15.7911 15.7818 15.7243 15.7161 15.6575C15.6505 15.5908 15.6505 15.4572 15.5848 15.3236C15.5848 15.1901 15.5848 15.0565 15.5848 14.9897C15.5848 14.9229 15.5848 14.7226 15.5848 14.589C15.5848 14.3887 15.5848 14.2551 15.5848 14.1884C15.5848 13.988 15.5848 13.7209 15.5848 13.4538C15.5848 13.1866 15.5848 12.9863 15.5848 12.8527C15.5848 12.7192 15.5848 12.5188 15.5848 12.3853C15.5848 12.1849 15.5848 12.0514 15.5848 11.9846C15.5848 11.9178 15.5192 11.7842 15.5192 11.7175C15.4535 11.6507 15.3879 11.5839 15.3222 11.5171C15.2566 11.4503 15.1253 11.4503 15.0596 11.3836C14.7314 11.3168 14.3375 11.25 13.878 11.25C12.8276 11.25 12.1054 11.3168 11.8428 11.4503C11.7115 11.5171 11.5802 11.5839 11.5146 11.7175C11.3833 11.851 11.3833 11.9178 11.4489 11.9178C11.7772 11.9846 12.0398 12.1181 12.1711 12.3185L12.2367 12.4521C12.3024 12.5188 12.3024 12.6524 12.368 12.8527C12.4337 13.0531 12.4337 13.2534 12.4337 13.5205C12.4337 13.9212 12.4337 14.3219 12.4337 14.589C12.4337 14.9229 12.368 15.1233 12.368 15.3236C12.368 15.524 12.3024 15.6575 12.2367 15.7243C12.1711 15.8579 12.1711 15.9247 12.1054 15.9247C12.1054 15.9247 12.1054 15.9914 12.0398 15.9914C11.9741 15.9914 11.9085 16.0582 11.7772 16.0582C11.7115 16.0582 11.5802 15.9914 11.5146 15.9247C11.3833 15.8579 11.252 15.7243 11.1863 15.5908C11.055 15.4572 10.9237 15.2568 10.7924 14.9897C10.6611 14.7226 10.4642 14.4555 10.3329 14.0548L10.2016 13.7877C10.1359 13.6541 10.0046 13.387 9.87333 13.0531C9.74203 12.7192 9.61073 12.4521 9.47943 12.1182C9.41378 11.9846 9.34814 11.9178 9.28249 11.851H9.21683C9.21683 11.851 9.15118 11.7842 9.08553 11.7842C9.01988 11.7842 8.95423 11.7175 8.88859 11.7175H6.5252C6.2626 11.7175 6.1313 11.7842 6.06565 11.851L6 11.9178C6 11.9178 6 11.9846 6 12.0514C6 12.1181 6 12.1849 6.06565 12.3185C6.3939 13.1199 6.7878 13.9212 7.18169 14.7226C7.57559 15.4572 7.96949 16.125 8.23209 16.5925C8.56034 17.0599 8.82293 17.5274 9.15118 17.9281C9.47943 18.3288 9.67637 18.5959 9.74202 18.7295C9.87332 18.863 9.93897 18.9298 10.0046 18.9966L10.2016 19.1969C10.3329 19.3305 10.5298 19.5308 10.7924 19.7312C11.055 19.9315 11.3833 20.1318 11.7115 20.3322C12.0398 20.5325 12.4337 20.6661 12.8276 20.7997C13.2871 20.9332 13.681 21 14.0749 20.9332H15.0596C15.2566 20.9332 15.3879 20.8664 15.5192 20.7329L15.5848 20.6661C15.5848 20.5993 15.6505 20.5993 15.6505 20.5325C15.6505 20.4658 15.6505 20.399 15.6505 20.2654C15.6505 19.9983 15.6505 19.798 15.7161 19.5976C15.7818 19.3973 15.7818 19.2637 15.8474 19.1301C15.9131 18.9966 15.9787 18.9298 16.0444 18.863C16.11 18.7962 16.1757 18.7295 16.1757 18.7295H16.2413C16.3726 18.6627 16.5696 18.7295 16.7009 18.863C16.8978 18.9966 17.0948 19.1969 17.2261 19.3973C17.3574 19.5976 17.5543 19.7979 17.8169 20.0651C18.0795 20.3322 18.2765 20.5325 18.4078 20.5993L18.6047 20.7329C18.736 20.7997 18.8673 20.8664 19.0643 20.9332C19.2612 21 19.3925 21 19.5238 21L21.7559 20.9332C21.9528 20.9332 22.1498 20.8664 22.2811 20.7997C22.4124 20.7329 22.478 20.6661 22.478 20.5325C22.478 20.4658 22.478 20.3322 22.478 20.2654C22.3467 20.1319 22.3467 20.0651 22.3467 19.9983Z" fill="white"/>
</svg>
