<svg width="26" height="16" viewBox="0 0 26 16" fill="none" xmlns="http://www.w3.org/2000/svg">
<path d="M25.7585 14.3562C25.7585 14.2466 25.655 14.2466 25.655 14.137C25.2413 13.2603 24.3102 12.1644 23.0689 10.9589C22.4482 10.411 22.1378 9.9726 21.9309 9.75342C21.6206 9.31507 21.6206 8.98631 21.724 8.54795C21.8275 8.21919 22.2413 7.67123 22.9654 6.68493C23.3792 6.13698 23.5861 5.80822 23.8964 5.47946C25.4481 3.28767 26.1723 1.863 25.9654 1.20547L25.862 1.09589C25.7585 0.986302 25.655 0.876716 25.4481 0.876716C25.2412 0.767127 24.9309 0.767127 24.6206 0.876716H20.6896C20.5861 0.876716 20.5861 0.876716 20.3792 0.876716C20.2758 0.876716 20.1723 0.876716 20.1723 0.876716H20.0689H19.9654L19.862 0.986295C19.7585 1.09588 19.7585 1.09588 19.7585 1.20547C19.3447 2.41095 18.8275 3.39725 18.3102 4.49314C17.9999 5.04109 17.6896 5.58904 17.3792 6.0274C17.0689 6.46576 16.862 6.79452 16.6551 7.0137C16.4482 7.23287 16.2413 7.34246 16.1378 7.56164C16.0344 7.67123 15.8275 7.78083 15.8275 7.67124C15.7241 7.67124 15.6206 7.67123 15.6206 7.56164C15.5172 7.45205 15.4137 7.34246 15.3103 7.23287C15.2068 7.12328 15.2068 6.9041 15.1034 6.68493C15.1034 6.46575 15.1034 6.24657 15.1034 6.13698C15.1034 6.02739 15.1034 5.69863 15.1034 5.47946C15.1034 5.15069 15.1034 4.9315 15.1034 4.82191C15.1034 4.49315 15.1034 4.0548 15.1034 3.61644C15.1034 3.17809 15.1034 2.84931 15.1034 2.63013C15.1034 2.41095 15.1034 2.08219 15.1034 1.86301C15.1034 1.53424 15.1034 1.31506 15.1034 1.20547C15.1034 1.09588 14.9999 0.87671 14.9999 0.76712C14.8965 0.657531 14.793 0.547939 14.6896 0.43835C14.5861 0.328761 14.3792 0.328764 14.2758 0.219175C13.7586 0.109586 13.1379 0 12.4137 0C10.7586 0 9.62065 0.109592 9.20686 0.328771C8.99996 0.43836 8.79307 0.547942 8.68962 0.76712C8.48272 0.986299 8.48272 1.09589 8.58617 1.09589C9.1034 1.20548 9.5172 1.42465 9.7241 1.75342L9.82755 1.97261C9.931 2.0822 9.93098 2.30136 10.0344 2.63013C10.1379 2.9589 10.1379 3.28767 10.1379 3.72602C10.1379 4.38356 10.1379 5.0411 10.1379 5.47946C10.1379 6.0274 10.0344 6.35616 10.0344 6.68493C10.0344 7.01369 9.931 7.23288 9.82755 7.34247C9.7241 7.56165 9.72409 7.67124 9.62064 7.67124C9.62064 7.67124 9.62064 7.78082 9.51719 7.78082C9.41374 7.78082 9.3103 7.89041 9.1034 7.89041C8.99996 7.89041 8.79307 7.78083 8.68962 7.67124C8.48272 7.56165 8.27583 7.34247 8.17238 7.12329C7.96549 6.90411 7.75858 6.57534 7.55169 6.13698C7.34479 5.69862 7.03444 5.26027 6.82754 4.60274L6.62067 4.16439C6.51722 3.94521 6.31032 3.50685 6.10343 2.9589C5.89653 2.41096 5.68963 1.97261 5.48273 1.42466C5.37929 1.20548 5.27585 1.09588 5.1724 0.986295H5.06895C5.06895 0.986295 4.96549 0.876716 4.86204 0.876716C4.75859 0.876716 4.65516 0.76712 4.55171 0.76712H0.827585C0.413794 0.76712 0.206902 0.876706 0.103454 0.986295L0 1.09589C0 1.09589 0 1.20548 0 1.31507C0 1.42466 6.31241e-06 1.53424 0.103454 1.75342C0.620693 3.06849 1.24138 4.38356 1.86206 5.69863C2.48275 6.90411 3.10344 8.00001 3.51723 8.76713C4.03447 9.53425 4.44826 10.3014 4.9655 10.9589C5.48273 11.6164 5.79307 12.0548 5.89652 12.274C6.10341 12.4932 6.20686 12.6027 6.3103 12.7123L6.62067 13.0411C6.82756 13.2603 7.1379 13.589 7.55169 13.9178C7.96548 14.2466 8.48271 14.5753 8.99995 14.9041C9.51719 15.2329 10.1379 15.4521 10.7586 15.6712C11.4827 15.8904 12.1034 16 12.7241 15.8904H14.2758C14.5861 15.8904 14.793 15.7808 14.9999 15.5617L15.1034 15.4521C15.1034 15.3425 15.2068 15.3425 15.2068 15.2329C15.2068 15.1233 15.2068 15.0137 15.2068 14.7945C15.2068 14.3562 15.2068 14.0274 15.3103 13.6986C15.4137 13.3699 15.4137 13.1507 15.5172 12.9315C15.6206 12.7123 15.7241 12.6027 15.8275 12.4932C15.931 12.3836 16.0344 12.274 16.0344 12.274H16.1378C16.3447 12.1644 16.6551 12.274 16.862 12.4932C17.1723 12.7123 17.4827 13.0411 17.6896 13.3699C17.8965 13.6986 18.2068 14.0274 18.6206 14.4658C19.0344 14.9041 19.3447 15.2329 19.5516 15.3425L19.862 15.5617C20.0689 15.6712 20.2758 15.7808 20.5861 15.8904C20.8965 16 21.1033 16 21.3102 16L24.8275 15.8904C25.1378 15.8904 25.4481 15.7808 25.655 15.6712C25.8619 15.5617 25.9654 15.4521 25.9654 15.2329C25.9654 15.1233 25.9654 14.9041 25.9654 14.7945C25.7585 14.5754 25.7585 14.4658 25.7585 14.3562Z" fill="#52A499"/>
</svg>
