<svg width="30" height="30" viewBox="0 0 30 30" fill="none" xmlns="http://www.w3.org/2000/svg">
<circle cx="15" cy="15" r="15" fill="#48C95F"/>
<path d="M20.9451 9.79687C19.4634 8.32031 17.4878 7.5 15.4024 7.5C11.0671 7.5 7.55488 11 7.55488 15.3203C7.55488 16.6875 7.93902 18.0547 8.59756 19.2031L7.5 23.25L11.6707 22.1562C12.8232 22.7578 14.0854 23.0859 15.4024 23.0859C19.7378 23.0859 23.25 19.5859 23.25 15.2656C23.1951 13.2422 22.4268 11.2734 20.9451 9.79687ZM19.189 18.1094C19.0244 18.5469 18.2561 18.9844 17.872 19.0391C17.5427 19.0937 17.1037 19.0938 16.6646 18.9844C16.3902 18.875 16.0061 18.7656 15.5671 18.5469C13.5915 17.7266 12.3293 15.7578 12.2195 15.5938C12.1098 15.4844 11.3963 14.5547 11.3963 13.5703C11.3963 12.5859 11.8902 12.1484 12.0549 11.9297C12.2195 11.7109 12.439 11.7109 12.6037 11.7109C12.7134 11.7109 12.878 11.7109 12.9878 11.7109C13.0976 11.7109 13.2622 11.6562 13.4268 12.0391C13.5915 12.4219 13.9756 13.4062 14.0305 13.4609C14.0854 13.5703 14.0854 13.6797 14.0305 13.7891C13.9756 13.8984 13.9207 14.0078 13.811 14.1172C13.7012 14.2266 13.5915 14.3906 13.5366 14.4453C13.4268 14.5547 13.3171 14.6641 13.4268 14.8281C13.5366 15.0469 13.9207 15.6484 14.5244 16.1953C15.2927 16.8516 15.8963 17.0703 16.1159 17.1797C16.3354 17.2891 16.4451 17.2344 16.5549 17.125C16.6646 17.0156 17.0488 16.5781 17.1585 16.3594C17.2683 16.1406 17.4329 16.1953 17.5976 16.25C17.7622 16.3047 18.75 16.7969 18.9146 16.9062C19.1341 17.0156 19.2439 17.0703 19.2988 17.125C19.3537 17.2891 19.3537 17.6719 19.189 18.1094Z" fill="white"/>
</svg>
